<?xml version="1.0" standalone="no"?>
<!DOCTYPE svg PUBLIC "-//W3C//DTD SVG 20010904//EN"
 "http://www.w3.org/TR/2001/REC-SVG-20010904/DTD/svg10.dtd">
<svg version="1.0" xmlns="http://www.w3.org/2000/svg"
 width="960.000000pt" height="720.000000pt" viewBox="0 0 960.000000 720.000000"
 preserveAspectRatio="xMidYMid meet">
<metadata>
Created by potrace 1.16, written by Peter Selinger 2001-2019
</metadata>
<g transform="translate(0.000000,720.000000) scale(0.100000,-0.100000)"
fill="#000000" stroke="none">
<path d="M6084 5083 c-3 -10 -19 -52 -35 -93 -33 -85 -36 -108 -14 -116 15 -6
22 -54 7 -54 -5 0 -17 7 -28 15 -10 8 -22 15 -26 15 -8 0 -189 -185 -190 -195
-1 -10 184 -255 192 -255 4 0 43 37 86 83 90 93 159 193 208 298 l34 73 -25
31 c-84 99 -188 215 -195 215 -5 0 -11 -8 -14 -17z m16 -262 c0 -17 -18 -21
-24 -6 -3 9 0 15 9 15 8 0 15 -4 15 -9z"/>
<path d="M4310 3266 c-21 -6 -60 -35 -95 -71 -34 -33 -80 -75 -103 -93 -40
-32 -68 -69 -60 -78 3 -2 13 5 24 15 12 10 30 22 42 25 12 4 22 11 22 15 0 5
22 11 48 15 48 6 49 7 105 93 31 48 56 87 54 88 -1 1 -18 -3 -37 -9z"/>
</g>
</svg>
