<?xml version="1.0" standalone="no"?>
<!DOCTYPE svg PUBLIC "-//W3C//DTD SVG 20010904//EN"
 "http://www.w3.org/TR/2001/REC-SVG-20010904/DTD/svg10.dtd">
<svg version="1.0" xmlns="http://www.w3.org/2000/svg"
 width="960.000000pt" height="720.000000pt" viewBox="0 0 960.000000 720.000000"
 preserveAspectRatio="xMidYMid meet">
<metadata>
Created by potrace 1.16, written by Peter Selinger 2001-2019
</metadata>
<g transform="translate(0.000000,720.000000) scale(0.100000,-0.100000)"
fill="#000000" stroke="none">
<path d="M5705 3276 c-111 -60 -145 -80 -145 -86 0 -8 228 -210 237 -210 4 0
21 13 38 29 16 16 69 58 118 94 l87 65 -47 35 c-69 50 -181 117 -196 117 -6 0
-48 -20 -92 -44z"/>
<path d="M3355 2988 c-37 -40 -72 -82 -77 -94 -7 -16 1 -46 37 -135 26 -63 52
-126 58 -141 6 -16 14 -28 18 -28 4 0 46 43 94 95 l87 94 -69 140 c-37 77 -71
141 -75 141 -3 0 -36 -33 -73 -72z"/>
</g>
</svg>
