<?xml version="1.0" standalone="no"?>
<!DOCTYPE svg PUBLIC "-//W3C//DTD SVG 20010904//EN"
 "http://www.w3.org/TR/2001/REC-SVG-20010904/DTD/svg10.dtd">
<svg version="1.0" xmlns="http://www.w3.org/2000/svg"
 width="960.000000pt" height="720.000000pt" viewBox="0 0 960.000000 720.000000"
 preserveAspectRatio="xMidYMid meet">
<metadata>
Created by potrace 1.16, written by Peter Selinger 2001-2019
</metadata>
<g transform="translate(0.000000,720.000000) scale(0.100000,-0.100000)"
fill="#000000" stroke="none">
<path d="M5881 5069 c-5 -13 -20 -49 -34 -78 l-24 -55 71 -54 c85 -65 109 -89
102 -101 -3 -5 1 -11 9 -15 20 -7 19 -32 -1 -40 -32 -12 -89 -5 -114 14 -14
11 -29 20 -35 20 -5 0 -29 18 -53 40 -24 22 -47 40 -51 40 -4 0 -32 -26 -62
-58 -30 -31 -76 -76 -103 -99 l-49 -43 96 -118 c53 -65 103 -125 112 -132 13
-10 23 -5 69 34 82 70 176 180 250 292 36 56 66 106 66 111 0 10 -178 211
-218 247 -21 18 -22 18 -31 -5z"/>
<path d="M4013 3178 c-65 -57 -94 -101 -41 -64 12 9 29 16 38 16 8 0 28 18 43
40 36 51 15 55 -40 8z"/>
</g>
</svg>
