<?xml version="1.0" standalone="no"?>
<!DOCTYPE svg PUBLIC "-//W3C//DTD SVG 20010904//EN"
 "http://www.w3.org/TR/2001/REC-SVG-20010904/DTD/svg10.dtd">
<svg version="1.0" xmlns="http://www.w3.org/2000/svg"
 width="960.000000pt" height="720.000000pt" viewBox="0 0 960.000000 720.000000"
 preserveAspectRatio="xMidYMid meet">
<metadata>
Created by potrace 1.16, written by Peter Selinger 2001-2019
</metadata>
<g transform="translate(0.000000,720.000000) scale(0.100000,-0.100000)"
fill="#000000" stroke="none">
<path d="M3755 3338 c-9 -54 -51 -196 -66 -225 -20 -37 -5 -53 48 -54 26 0 84
-6 128 -13 44 -8 81 -13 81 -12 3 3 76 272 77 285 2 15 -163 60 -225 61 -35 0
-36 -1 -43 -42z"/>
<path d="M6140 2907 c-34 -59 -141 -178 -189 -210 l-24 -16 28 -130 c18 -87
31 -128 39 -124 6 4 37 29 69 56 68 59 137 144 174 219 l26 53 -33 97 c-18 54
-38 102 -44 107 -8 7 -22 -10 -46 -52z"/>
</g>
</svg>
