<?xml version="1.0" standalone="no"?>
<!DOCTYPE svg PUBLIC "-//W3C//DTD SVG 20010904//EN"
 "http://www.w3.org/TR/2001/REC-SVG-20010904/DTD/svg10.dtd">
<svg version="1.0" xmlns="http://www.w3.org/2000/svg"
 width="960.000000pt" height="720.000000pt" viewBox="0 0 960.000000 720.000000"
 preserveAspectRatio="xMidYMid meet">
<metadata>
Created by potrace 1.16, written by Peter Selinger 2001-2019
</metadata>
<g transform="translate(0.000000,720.000000) scale(0.100000,-0.100000)"
fill="#000000" stroke="none">
<path d="M5832 3296 c-45 -35 -85 -66 -88 -69 -3 -3 40 -36 97 -74 56 -37 114
-78 129 -90 15 -13 34 -23 42 -23 7 0 22 10 32 23 11 12 43 49 73 83 29 34 53
66 53 73 0 20 -208 141 -242 141 -7 0 -50 -29 -96 -64z"/>
<path d="M3659 2964 c-13 -14 -66 -58 -116 -96 -51 -39 -93 -75 -93 -81 0 -14
142 -287 149 -287 28 0 283 197 279 215 -6 24 -174 275 -184 275 -6 0 -21 -12
-35 -26z"/>
</g>
</svg>
