<?xml version="1.0" standalone="no"?>
<!DOCTYPE svg PUBLIC "-//W3C//DTD SVG 20010904//EN"
 "http://www.w3.org/TR/2001/REC-SVG-20010904/DTD/svg10.dtd">
<svg version="1.0" xmlns="http://www.w3.org/2000/svg"
 width="960.000000pt" height="720.000000pt" viewBox="0 0 960.000000 720.000000"
 preserveAspectRatio="xMidYMid meet">
<metadata>
Created by potrace 1.16, written by Peter Selinger 2001-2019
</metadata>
<g transform="translate(0.000000,720.000000) scale(0.100000,-0.100000)"
fill="#000000" stroke="none">
<path d="M6346 4945 c-3 -9 -6 -28 -6 -42 0 -14 -7 -51 -15 -82 -13 -51 -13
-65 3 -143 10 -48 21 -90 24 -94 25 -24 39 214 19 315 -13 62 -16 68 -25 46z"/>
<path d="M5255 3253 c-55 -14 -199 -64 -234 -82 l-39 -21 14 -53 c17 -67 38
-115 62 -145 l18 -23 55 29 c45 25 168 79 257 113 23 9 22 11 -39 99 -33 50
-64 89 -68 89 -3 -1 -15 -4 -26 -6z"/>
</g>
</svg>
