<?xml version="1.0" standalone="no"?>
<!DOCTYPE svg PUBLIC "-//W3C//DTD SVG 20010904//EN"
 "http://www.w3.org/TR/2001/REC-SVG-20010904/DTD/svg10.dtd">
<svg version="1.0" xmlns="http://www.w3.org/2000/svg"
 width="960.000000pt" height="720.000000pt" viewBox="0 0 960.000000 720.000000"
 preserveAspectRatio="xMidYMid meet">
<metadata>
Created by potrace 1.16, written by Peter Selinger 2001-2019
</metadata>
<g transform="translate(0.000000,720.000000) scale(0.100000,-0.100000)"
fill="#000000" stroke="none">
<path d="M5235 5017 c-63 -90 -236 -273 -334 -355 -17 -13 -31 -29 -31 -34 0
-21 194 -278 210 -278 29 0 410 405 410 436 0 15 -207 274 -218 274 -4 0 -20
-19 -37 -43z"/>
<path d="M6540 3534 c0 -4 25 -39 55 -79 30 -40 69 -96 87 -125 18 -29 34 -47
36 -42 4 13 -32 72 -107 174 -50 69 -71 90 -71 72z"/>
</g>
</svg>
