<?xml version="1.0" standalone="no"?>
<!DOCTYPE svg PUBLIC "-//W3C//DTD SVG 20010904//EN"
 "http://www.w3.org/TR/2001/REC-SVG-20010904/DTD/svg10.dtd">
<svg version="1.0" xmlns="http://www.w3.org/2000/svg"
 width="960.000000pt" height="720.000000pt" viewBox="0 0 960.000000 720.000000"
 preserveAspectRatio="xMidYMid meet">
<metadata>
Created by potrace 1.16, written by Peter Selinger 2001-2019
</metadata>
<g transform="translate(0.000000,720.000000) scale(0.100000,-0.100000)"
fill="#000000" stroke="none">
<path d="M4614 5003 c-27 -32 -90 -103 -139 -158 -50 -55 -109 -122 -132 -148
l-42 -49 29 -59 c33 -65 129 -229 134 -229 2 0 69 75 149 168 79 92 153 176
163 187 61 67 63 48 -21 196 -42 74 -80 138 -84 142 -4 4 -30 -18 -57 -50z"/>
<path d="M6456 3452 c-3 -6 -13 -9 -20 -6 -8 3 -17 0 -21 -5 -3 -6 -11 -9 -16
-6 -16 10 -10 -6 22 -61 17 -30 27 -54 22 -55 -4 0 1 -4 12 -9 17 -7 17 -9 3
-9 -25 -1 -23 -11 22 -89 22 -38 40 -75 40 -81 0 -15 1 -14 57 19 65 39 66 64
4 158 -69 104 -116 158 -125 144z"/>
</g>
</svg>
