<?xml version="1.0" standalone="no"?>
<!DOCTYPE svg PUBLIC "-//W3C//DTD SVG 20010904//EN"
 "http://www.w3.org/TR/2001/REC-SVG-20010904/DTD/svg10.dtd">
<svg version="1.0" xmlns="http://www.w3.org/2000/svg"
 width="960.000000pt" height="720.000000pt" viewBox="0 0 960.000000 720.000000"
 preserveAspectRatio="xMidYMid meet">
<metadata>
Created by potrace 1.16, written by Peter Selinger 2001-2019
</metadata>
<g transform="translate(0.000000,720.000000) scale(0.100000,-0.100000)"
fill="#000000" stroke="none">
<path d="M5776 5004 c-21 -41 -36 -76 -34 -78 62 -40 178 -106 187 -106 6 0
11 -4 11 -10 0 -5 6 -10 14 -10 8 0 12 -7 10 -17 -2 -10 3 -26 11 -37 16 -21
23 -17 64 42 l23 34 -29 31 c-16 18 -69 76 -117 130 -48 53 -91 97 -95 97 -5
0 -25 -34 -45 -76z"/>
<path d="M5571 4750 l-121 -118 88 -108 c48 -59 97 -119 108 -133 l21 -25 49
41 c99 83 254 262 254 294 0 7 -9 9 -27 5 -16 -4 -35 -7 -44 -7 -23 0 -129 72
-129 88 0 7 -7 13 -15 13 -8 0 -15 8 -15 19 0 10 -11 26 -24 34 -23 15 -26 13
-145 -103z"/>
<path d="M4010 3219 c-19 -17 -42 -36 -50 -43 -8 -6 -21 -19 -29 -28 -12 -16
-11 -17 15 -7 28 11 126 109 108 109 -5 0 -25 -14 -44 -31z"/>
</g>
</svg>
