<?xml version="1.0" standalone="no"?>
<!DOCTYPE svg PUBLIC "-//W3C//DTD SVG 20010904//EN"
 "http://www.w3.org/TR/2001/REC-SVG-20010904/DTD/svg10.dtd">
<svg version="1.0" xmlns="http://www.w3.org/2000/svg"
 width="960.000000pt" height="720.000000pt" viewBox="0 0 960.000000 720.000000"
 preserveAspectRatio="xMidYMid meet">
<metadata>
Created by potrace 1.16, written by Peter Selinger 2001-2019
</metadata>
<g transform="translate(0.000000,720.000000) scale(0.100000,-0.100000)"
fill="#000000" stroke="none">
<path d="M6326 4880 c-18 -70 -21 -110 -14 -155 20 -123 20 -121 28 -100 11
25 11 221 0 255 l-7 25 -7 -25z"/>
<path d="M5230 3226 c-52 -18 -114 -43 -137 -54 l-42 -22 13 -37 c19 -53 63
-145 80 -167 14 -17 20 -16 133 42 65 32 139 67 166 77 26 10 47 21 47 25 0
19 -132 170 -148 169 -9 0 -60 -15 -112 -33z"/>
</g>
</svg>
