<?xml version="1.0" standalone="no"?>
<!DOCTYPE svg PUBLIC "-//W3C//DTD SVG 20010904//EN"
 "http://www.w3.org/TR/2001/REC-SVG-20010904/DTD/svg10.dtd">
<svg version="1.0" xmlns="http://www.w3.org/2000/svg"
 width="960.000000pt" height="720.000000pt" viewBox="0 0 960.000000 720.000000"
 preserveAspectRatio="xMidYMid meet">
<metadata>
Created by potrace 1.16, written by Peter Selinger 2001-2019
</metadata>
<g transform="translate(0.000000,720.000000) scale(0.100000,-0.100000)"
fill="#000000" stroke="none">
<path d="M4897 3293 c-2 -5 -2 -82 1 -172 l4 -163 57 6 c31 4 115 11 186 16
115 8 132 12 148 31 10 13 15 29 11 38 -4 9 -11 45 -15 81 -5 36 -12 72 -16
80 -3 8 -8 26 -9 39 -2 13 -6 26 -9 29 -16 16 -350 30 -358 15z"/>
</g>
</svg>
