<?xml version="1.0" standalone="no"?>
<!DOCTYPE svg PUBLIC "-//W3C//DTD SVG 20010904//EN"
 "http://www.w3.org/TR/2001/REC-SVG-20010904/DTD/svg10.dtd">
<svg version="1.0" xmlns="http://www.w3.org/2000/svg"
 width="960.000000pt" height="720.000000pt" viewBox="0 0 960.000000 720.000000"
 preserveAspectRatio="xMidYMid meet">
<metadata>
Created by potrace 1.16, written by Peter Selinger 2001-2019
</metadata>
<g transform="translate(0.000000,720.000000) scale(0.100000,-0.100000)"
fill="#000000" stroke="none">
<path d="M4488 4972 c-42 -48 -106 -122 -144 -166 -38 -43 -82 -95 -97 -116
l-29 -38 21 -48 c33 -75 124 -235 131 -232 4 2 51 57 105 123 54 66 131 157
171 201 l74 82 -71 136 c-39 74 -74 138 -78 141 -5 2 -42 -35 -83 -83z"/>
<path d="M6415 3430 c-3 -5 -16 -10 -28 -10 -20 -1 -20 -2 -4 -11 9 -5 17 -19
17 -29 0 -11 5 -20 10 -20 6 0 10 -9 10 -21 0 -11 7 -34 17 -49 15 -27 15 -29
-5 -55 l-21 -26 27 -55 c14 -30 29 -54 33 -54 4 0 17 8 29 18 17 14 24 35 32
98 l11 81 -33 49 c-57 85 -81 106 -95 84z"/>
</g>
</svg>
