<?xml version="1.0" standalone="no"?>
<!DOCTYPE svg PUBLIC "-//W3C//DTD SVG 20010904//EN"
 "http://www.w3.org/TR/2001/REC-SVG-20010904/DTD/svg10.dtd">
<svg version="1.0" xmlns="http://www.w3.org/2000/svg"
 width="960.000000pt" height="720.000000pt" viewBox="0 0 960.000000 720.000000"
 preserveAspectRatio="xMidYMid meet">
<metadata>
Created by potrace 1.16, written by Peter Selinger 2001-2019
</metadata>
<g transform="translate(0.000000,720.000000) scale(0.100000,-0.100000)"
fill="#000000" stroke="none">
<path d="M4263 5047 c-4 -8 -28 -38 -53 -67 -77 -90 -159 -203 -187 -257 l-28
-53 32 -92 c17 -51 42 -115 54 -143 20 -44 23 -48 33 -31 33 56 149 229 169
253 95 109 108 126 101 142 -3 9 -25 70 -48 135 -41 118 -56 141 -73 113z"/>
<path d="M6417 3149 c-10 -36 -9 -39 13 -39 23 0 26 18 7 45 -13 17 -14 17
-20 -6z"/>
</g>
</svg>
