<?xml version="1.0" standalone="no"?>
<!DOCTYPE svg PUBLIC "-//W3C//DTD SVG 20010904//EN"
 "http://www.w3.org/TR/2001/REC-SVG-20010904/DTD/svg10.dtd">
<svg version="1.0" xmlns="http://www.w3.org/2000/svg"
 width="960.000000pt" height="720.000000pt" viewBox="0 0 960.000000 720.000000"
 preserveAspectRatio="xMidYMid meet">
<metadata>
Created by potrace 1.16, written by Peter Selinger 2001-2019
</metadata>
<g transform="translate(0.000000,720.000000) scale(0.100000,-0.100000)"
fill="#000000" stroke="none">
<path d="M4180 5037 c0 -8 -9 -18 -20 -23 -28 -13 -160 -190 -199 -267 l-33
-66 41 -128 c22 -70 45 -134 49 -141 7 -10 18 4 41 47 47 91 118 198 178 269
l53 63 -14 37 c-7 20 -19 55 -26 77 -7 22 -17 51 -23 65 -13 32 -14 36 -16 60
-1 22 -31 28 -31 7z"/>
<path d="M6317 3160 c-12 -14 -15 -29 -11 -46 6 -23 11 -25 37 -20 16 3 34 6
38 6 5 0 0 18 -11 40 -23 46 -29 48 -53 20z"/>
</g>
</svg>
