<?xml version="1.0" standalone="no"?>
<!DOCTYPE svg PUBLIC "-//W3C//DTD SVG 20010904//EN"
 "http://www.w3.org/TR/2001/REC-SVG-20010904/DTD/svg10.dtd">
<svg version="1.0" xmlns="http://www.w3.org/2000/svg"
 width="960.000000pt" height="720.000000pt" viewBox="0 0 960.000000 720.000000"
 preserveAspectRatio="xMidYMid meet">
<metadata>
Created by potrace 1.16, written by Peter Selinger 2001-2019
</metadata>
<g transform="translate(0.000000,720.000000) scale(0.100000,-0.100000)"
fill="#000000" stroke="none">
<path d="M6136 5078 c-12 -63 -75 -200 -113 -246 -21 -26 -64 -75 -96 -109
-38 -41 -56 -67 -51 -75 27 -45 176 -238 183 -238 17 0 132 133 186 215 47 71
115 211 115 237 0 10 -161 199 -198 231 -19 18 -20 17 -26 -15z"/>
<path d="M4356 3255 c-48 -17 -93 -49 -126 -89 -14 -17 -34 -40 -45 -51 -49
-51 -86 -97 -82 -102 3 -2 22 6 44 19 21 13 63 32 93 42 82 28 88 32 116 89
15 29 35 64 46 80 22 31 14 34 -46 12z"/>
</g>
</svg>
