<?xml version="1.0" standalone="no"?>
<!DOCTYPE svg PUBLIC "-//W3C//DTD SVG 20010904//EN"
 "http://www.w3.org/TR/2001/REC-SVG-20010904/DTD/svg10.dtd">
<svg version="1.0" xmlns="http://www.w3.org/2000/svg"
 width="960.000000pt" height="720.000000pt" viewBox="0 0 960.000000 720.000000"
 preserveAspectRatio="xMidYMid meet">
<metadata>
Created by potrace 1.16, written by Peter Selinger 2001-2019
</metadata>
<g transform="translate(0.000000,720.000000) scale(0.100000,-0.100000)"
fill="#000000" stroke="none">
<path d="M3526 3438 c-3 -7 -7 -32 -9 -56 -7 -55 -46 -135 -93 -190 -20 -24
-35 -44 -33 -45 2 -2 28 -10 57 -19 l52 -16 15 35 c8 20 15 38 15 41 0 2 23
49 50 104 28 55 50 101 50 103 0 3 -23 16 -50 30 -37 19 -51 22 -54 13z"/>
<path d="M5591 2838 c-42 -45 -114 -105 -167 -141 -51 -34 -93 -66 -94 -70 0
-14 93 -232 106 -246 10 -11 21 -8 69 19 127 73 323 255 310 290 -8 21 -135
219 -143 223 -4 2 -40 -32 -81 -75z"/>
</g>
</svg>
