<?xml version="1.0" standalone="no"?>
<!DOCTYPE svg PUBLIC "-//W3C//DTD SVG 20010904//EN"
 "http://www.w3.org/TR/2001/REC-SVG-20010904/DTD/svg10.dtd">
<svg version="1.0" xmlns="http://www.w3.org/2000/svg"
 width="960.000000pt" height="720.000000pt" viewBox="0 0 960.000000 720.000000"
 preserveAspectRatio="xMidYMid meet">
<metadata>
Created by potrace 1.16, written by Peter Selinger 2001-2019
</metadata>
<g transform="translate(0.000000,720.000000) scale(0.100000,-0.100000)"
fill="#000000" stroke="none">
<path d="M5730 3274 c-52 -30 -101 -61 -108 -68 -10 -10 2 -24 65 -76 43 -35
100 -82 126 -104 l48 -40 42 41 c23 22 71 64 107 93 36 29 66 56 68 59 5 12
-216 151 -239 151 -8 -1 -57 -26 -109 -56z"/>
<path d="M3385 2950 l-89 -89 24 -58 c13 -32 43 -101 67 -153 l44 -94 104 104
104 104 -41 75 c-94 174 -110 201 -117 201 -3 0 -47 -40 -96 -90z"/>
</g>
</svg>
