<?xml version="1.0" standalone="no"?>
<!DOCTYPE svg PUBLIC "-//W3C//DTD SVG 20010904//EN"
 "http://www.w3.org/TR/2001/REC-SVG-20010904/DTD/svg10.dtd">
<svg version="1.0" xmlns="http://www.w3.org/2000/svg"
 width="960.000000pt" height="720.000000pt" viewBox="0 0 960.000000 720.000000"
 preserveAspectRatio="xMidYMid meet">
<metadata>
Created by potrace 1.16, written by Peter Selinger 2001-2019
</metadata>
<g transform="translate(0.000000,720.000000) scale(0.100000,-0.100000)"
fill="#000000" stroke="none">
<path d="M5996 5010 l-39 -90 54 -57 c30 -32 57 -59 61 -61 5 -2 8 -9 8 -16 0
-14 -43 -14 -62 0 -7 6 -29 11 -48 13 -19 1 -41 8 -50 16 -9 8 -19 15 -21 15
-2 0 -46 -41 -96 -90 l-91 -90 76 -98 c42 -54 89 -114 104 -133 l27 -34 76 75
c101 100 212 257 254 357 11 28 11 34 -11 59 -34 41 -199 224 -202 224 -1 0
-19 -40 -40 -90z"/>
<path d="M4230 3256 c-20 -13 -49 -39 -65 -58 -17 -19 -48 -46 -71 -61 -23
-14 -56 -45 -75 -69 l-34 -43 35 25 c40 29 91 54 103 51 5 -1 6 7 2 17 -7 23
36 57 52 41 5 -5 29 16 61 56 54 68 51 82 -8 41z"/>
<path d="M4156 3125 c-3 -8 -1 -15 4 -15 13 0 22 18 11 24 -5 3 -11 -1 -15 -9z"/>
</g>
</svg>
