<?xml version="1.0" standalone="no"?>
<!DOCTYPE svg PUBLIC "-//W3C//DTD SVG 20010904//EN"
 "http://www.w3.org/TR/2001/REC-SVG-20010904/DTD/svg10.dtd">
<svg version="1.0" xmlns="http://www.w3.org/2000/svg"
 width="960.000000pt" height="720.000000pt" viewBox="0 0 960.000000 720.000000"
 preserveAspectRatio="xMidYMid meet">
<metadata>
Created by potrace 1.16, written by Peter Selinger 2001-2019
</metadata>
<g transform="translate(0.000000,720.000000) scale(0.100000,-0.100000)"
fill="#000000" stroke="none">
<path d="M3809 3277 c-49 -122 -78 -216 -69 -222 4 -2 63 -9 131 -14 68 -6
138 -13 155 -17 l31 -6 23 109 c13 59 29 126 37 147 7 22 11 41 9 44 -5 4 -74
20 -180 42 -98 20 -97 21 -137 -83z"/>
<path d="M6253 2968 c-5 -7 -20 -35 -34 -63 -13 -27 -60 -88 -105 -135 l-81
-85 22 -117 c12 -65 24 -120 27 -123 2 -3 34 23 71 57 69 67 135 160 163 233
16 44 16 45 -16 145 -18 55 -33 100 -35 100 -1 0 -7 -6 -12 -12z"/>
</g>
</svg>
