<?xml version="1.0" standalone="no"?>
<!DOCTYPE svg PUBLIC "-//W3C//DTD SVG 20010904//EN"
 "http://www.w3.org/TR/2001/REC-SVG-20010904/DTD/svg10.dtd">
<svg version="1.0" xmlns="http://www.w3.org/2000/svg"
 width="960.000000pt" height="720.000000pt" viewBox="0 0 960.000000 720.000000"
 preserveAspectRatio="xMidYMid meet">
<metadata>
Created by potrace 1.16, written by Peter Selinger 2001-2019
</metadata>
<g transform="translate(0.000000,720.000000) scale(0.100000,-0.100000)"
fill="#000000" stroke="none">
<path d="M6265 5085 c-19 -132 -74 -247 -167 -354 l-38 -44 22 -37 c63 -103
134 -209 140 -210 13 0 104 119 140 185 20 35 44 88 53 116 l17 51 -27 24
c-28 24 -30 47 -10 126 8 28 -18 73 -88 153 l-34 39 -8 -49z"/>
<path d="M4570 3249 c-103 -29 -153 -55 -183 -94 -37 -50 -90 -163 -82 -175 4
-6 23 -1 46 10 41 22 52 36 19 25 -11 -4 -20 -2 -20 4 0 13 39 35 65 37 62 5
142 18 158 26 9 5 17 19 17 32 0 14 9 52 19 85 20 66 20 66 -39 50z"/>
<path d="M4400 3030 c0 -5 4 -10 9 -10 6 0 13 5 16 10 3 6 -1 10 -9 10 -9 0
-16 -4 -16 -10z"/>
</g>
</svg>
