<?xml version="1.0" standalone="no"?>
<!DOCTYPE svg PUBLIC "-//W3C//DTD SVG 20010904//EN"
 "http://www.w3.org/TR/2001/REC-SVG-20010904/DTD/svg10.dtd">
<svg version="1.0" xmlns="http://www.w3.org/2000/svg"
 width="960.000000pt" height="720.000000pt" viewBox="0 0 960.000000 720.000000"
 preserveAspectRatio="xMidYMid meet">
<metadata>
Created by potrace 1.16, written by Peter Selinger 2001-2019
</metadata>
<g transform="translate(0.000000,720.000000) scale(0.100000,-0.100000)"
fill="#000000" stroke="none">
<path d="M3705 5057 c-27 -42 -53 -129 -59 -202 -4 -38 -9 -85 -12 -102 -8
-51 9 -39 44 32 24 48 32 79 32 118 0 28 4 79 10 111 5 33 8 62 6 64 -3 2 -12
-7 -21 -21z"/>
<path d="M5288 3303 c-21 -2 -38 -7 -38 -11 0 -4 12 -80 27 -170 25 -155 28
-163 47 -158 12 3 53 11 91 16 39 6 84 18 101 26 l32 16 -4 126 c-4 144 -8
152 -78 152 -23 0 -63 2 -91 4 -27 2 -67 2 -87 -1z"/>
</g>
</svg>
