<?xml version="1.0" standalone="no"?>
<!DOCTYPE svg PUBLIC "-//W3C//DTD SVG 20010904//EN"
 "http://www.w3.org/TR/2001/REC-SVG-20010904/DTD/svg10.dtd">
<svg version="1.0" xmlns="http://www.w3.org/2000/svg"
 width="960.000000pt" height="720.000000pt" viewBox="0 0 960.000000 720.000000"
 preserveAspectRatio="xMidYMid meet">
<metadata>
Created by potrace 1.16, written by Peter Selinger 2001-2019
</metadata>
<g transform="translate(0.000000,720.000000) scale(0.100000,-0.100000)"
fill="#000000" stroke="none">
<path d="M6300 4875 c-11 -25 -38 -72 -60 -105 l-41 -60 61 -115 c34 -63 66
-115 71 -115 15 0 99 152 119 217 11 35 22 85 26 113 7 49 6 50 -21 50 -29 0
-105 38 -105 52 0 4 -7 8 -15 8 -9 0 -24 -20 -35 -45z"/>
<path d="M4785 3239 c-46 -11 -138 -42 -177 -60 -20 -9 -32 -27 -48 -72 -11
-34 -20 -70 -20 -82 0 -21 0 -21 92 -7 152 24 223 44 222 65 0 9 -1 51 -2 92
-2 81 0 79 -67 64z"/>
</g>
</svg>
