<?xml version="1.0" standalone="no"?>
<!DOCTYPE svg PUBLIC "-//W3C//DTD SVG 20010904//EN"
 "http://www.w3.org/TR/2001/REC-SVG-20010904/DTD/svg10.dtd">
<svg version="1.0" xmlns="http://www.w3.org/2000/svg"
 width="960.000000pt" height="720.000000pt" viewBox="0 0 960.000000 720.000000"
 preserveAspectRatio="xMidYMid meet">
<metadata>
Created by potrace 1.16, written by Peter Selinger 2001-2019
</metadata>
<g transform="translate(0.000000,720.000000) scale(0.100000,-0.100000)"
fill="#000000" stroke="none">
<path d="M4500 2868 c-47 -41 -213 -150 -272 -179 -27 -13 -48 -25 -48 -29 0
-3 28 -52 62 -110 33 -58 68 -118 76 -133 8 -16 20 -31 28 -34 28 -10 285 141
383 226 39 34 47 15 -83 179 -49 62 -94 112 -100 112 -6 -1 -27 -15 -46 -32z"/>
</g>
</svg>
