<?xml version="1.0" standalone="no"?>
<!DOCTYPE svg PUBLIC "-//W3C//DTD SVG 20010904//EN"
 "http://www.w3.org/TR/2001/REC-SVG-20010904/DTD/svg10.dtd">
<svg version="1.0" xmlns="http://www.w3.org/2000/svg"
 width="960.000000pt" height="720.000000pt" viewBox="0 0 960.000000 720.000000"
 preserveAspectRatio="xMidYMid meet">
<metadata>
Created by potrace 1.16, written by Peter Selinger 2001-2019
</metadata>
<g transform="translate(0.000000,720.000000) scale(0.100000,-0.100000)"
fill="#000000" stroke="none">
<path d="M4084 5033 c-3 -13 -10 -23 -14 -23 -15 0 -123 -157 -161 -234 -27
-55 -37 -87 -33 -105 18 -81 67 -251 73 -251 4 0 18 24 31 53 21 47 117 215
130 227 3 3 23 26 43 52 l38 47 -17 53 c-27 83 -29 90 -57 148 -23 48 -27 52
-33 33z m-15 -277 c8 -10 8 -16 -3 -25 -11 -9 -15 -8 -20 5 -13 34 1 47 23 20z"/>
<path d="M6255 3110 c-10 -16 4 -30 31 -30 26 0 31 9 12 28 -15 15 -35 16 -43
2z"/>
</g>
</svg>
