<?xml version="1.0" standalone="no"?>
<!DOCTYPE svg PUBLIC "-//W3C//DTD SVG 20010904//EN"
 "http://www.w3.org/TR/2001/REC-SVG-20010904/DTD/svg10.dtd">
<svg version="1.0" xmlns="http://www.w3.org/2000/svg"
 width="960.000000pt" height="720.000000pt" viewBox="0 0 960.000000 720.000000"
 preserveAspectRatio="xMidYMid meet">
<metadata>
Created by potrace 1.16, written by Peter Selinger 2001-2019
</metadata>
<g transform="translate(0.000000,720.000000) scale(0.100000,-0.100000)"
fill="#000000" stroke="none">
<path d="M4320 3313 c0 -5 -14 -73 -30 -153 -16 -80 -30 -152 -30 -160 0 -13
29 -15 205 -15 l205 0 0 153 c0 117 -3 152 -13 152 -7 0 -67 7 -132 15 -132
16 -205 19 -205 8z"/>
<path d="M6509 2848 c-6 -13 -19 -32 -29 -43 -13 -15 -20 -46 -25 -127 -9
-147 8 -142 55 13 11 39 24 179 16 179 -3 0 -11 -10 -17 -22z"/>
</g>
</svg>
