<?xml version="1.0" standalone="no"?>
<!DOCTYPE svg PUBLIC "-//W3C//DTD SVG 20010904//EN"
 "http://www.w3.org/TR/2001/REC-SVG-20010904/DTD/svg10.dtd">
<svg version="1.0" xmlns="http://www.w3.org/2000/svg"
 width="960.000000pt" height="720.000000pt" viewBox="0 0 960.000000 720.000000"
 preserveAspectRatio="xMidYMid meet">
<metadata>
Created by potrace 1.16, written by Peter Selinger 2001-2019
</metadata>
<g transform="translate(0.000000,720.000000) scale(0.100000,-0.100000)"
fill="#000000" stroke="none">
<path d="M3745 5043 c-56 -100 -65 -137 -71 -286 l-5 -142 20 53 c11 30 33 77
49 105 27 47 30 64 36 185 4 72 5 132 3 132 -3 0 -17 -21 -32 -47z"/>
<path d="M5398 3304 c-7 -12 8 -206 21 -273 6 -29 11 -56 11 -58 0 -7 77 6
136 23 53 14 70 36 53 67 -6 10 -5 18 1 22 6 4 8 11 4 16 -6 10 -9 38 -18 133
-2 26 -9 53 -15 59 -13 13 -186 23 -193 11z"/>
</g>
</svg>
