<?xml version="1.0" standalone="no"?>
<!DOCTYPE svg PUBLIC "-//W3C//DTD SVG 20010904//EN"
 "http://www.w3.org/TR/2001/REC-SVG-20010904/DTD/svg10.dtd">
<svg version="1.0" xmlns="http://www.w3.org/2000/svg"
 width="960.000000pt" height="720.000000pt" viewBox="0 0 960.000000 720.000000"
 preserveAspectRatio="xMidYMid meet">
<metadata>
Created by potrace 1.16, written by Peter Selinger 2001-2019
</metadata>
<g transform="translate(0.000000,720.000000) scale(0.100000,-0.100000)"
fill="#000000" stroke="none">
<path d="M4215 3318 c-7 -19 -75 -305 -75 -315 0 -4 90 -9 199 -9 l200 -2 5
72 c19 245 19 225 -6 230 -35 8 -266 36 -294 36 -14 0 -27 -6 -29 -12z"/>
<path d="M6472 2880 c-13 -25 -37 -62 -53 -82 -28 -36 -29 -39 -29 -155 l1
-118 20 25 c60 72 92 183 87 300 l-3 75 -23 -45z"/>
</g>
</svg>
