<?xml version="1.0" standalone="no"?>
<!DOCTYPE svg PUBLIC "-//W3C//DTD SVG 20010904//EN"
 "http://www.w3.org/TR/2001/REC-SVG-20010904/DTD/svg10.dtd">
<svg version="1.0" xmlns="http://www.w3.org/2000/svg"
 width="960.000000pt" height="720.000000pt" viewBox="0 0 960.000000 720.000000"
 preserveAspectRatio="xMidYMid meet">
<metadata>
Created by potrace 1.16, written by Peter Selinger 2001-2019
</metadata>
<g transform="translate(0.000000,720.000000) scale(0.100000,-0.100000)"
fill="#000000" stroke="none">
<path d="M5905 3328 c-36 -39 -62 -75 -58 -79 4 -4 49 -31 98 -59 180 -105
174 -104 219 -36 68 102 49 130 -146 222 l-47 23 -66 -71z"/>
<path d="M3910 2900 c-35 -28 -103 -76 -152 -107 -48 -30 -88 -57 -88 -60 0
-7 41 -86 75 -143 17 -30 44 -76 59 -102 l27 -48 52 26 c68 34 200 123 256
172 l45 39 -86 114 c-46 63 -90 124 -97 137 -6 12 -15 22 -20 22 -5 0 -37 -23
-71 -50z"/>
</g>
</svg>
