<?xml version="1.0" standalone="no"?>
<!DOCTYPE svg PUBLIC "-//W3C//DTD SVG 20010904//EN"
 "http://www.w3.org/TR/2001/REC-SVG-20010904/DTD/svg10.dtd">
<svg version="1.0" xmlns="http://www.w3.org/2000/svg"
 width="960.000000pt" height="720.000000pt" viewBox="0 0 960.000000 720.000000"
 preserveAspectRatio="xMidYMid meet">
<metadata>
Created by potrace 1.16, written by Peter Selinger 2001-2019
</metadata>
<g transform="translate(0.000000,720.000000) scale(0.100000,-0.100000)"
fill="#000000" stroke="none">
<path d="M5932 5018 c-18 -40 -32 -77 -32 -82 0 -15 113 -115 124 -109 5 4 7
-1 3 -11 -4 -10 0 -24 9 -34 14 -14 15 -17 1 -27 -32 -23 -95 -8 -149 34 -28
23 -54 41 -59 41 -5 0 -52 -42 -104 -93 l-96 -94 38 -50 c70 -93 168 -212 174
-213 4 0 55 51 115 113 75 78 129 145 172 216 35 56 65 108 68 115 5 13 -209
266 -225 266 -4 0 -22 -33 -39 -72z"/>
<path d="M4154 3235 c-24 -25 -38 -45 -31 -45 16 0 25 8 66 53 50 53 18 46
-35 -8z"/>
<path d="M4022 3134 c-73 -62 -71 -77 6 -35 37 20 68 44 70 54 6 28 -29 20
-76 -19z"/>
</g>
</svg>
