<?xml version="1.0" standalone="no"?>
<!DOCTYPE svg PUBLIC "-//W3C//DTD SVG 20010904//EN"
 "http://www.w3.org/TR/2001/REC-SVG-20010904/DTD/svg10.dtd">
<svg version="1.0" xmlns="http://www.w3.org/2000/svg"
 width="960.000000pt" height="720.000000pt" viewBox="0 0 960.000000 720.000000"
 preserveAspectRatio="xMidYMid meet">
<metadata>
Created by potrace 1.16, written by Peter Selinger 2001-2019
</metadata>
<g transform="translate(0.000000,720.000000) scale(0.100000,-0.100000)"
fill="#000000" stroke="none">
<path d="M3926 3343 c-40 -100 -106 -289 -106 -304 0 -3 66 -9 148 -13 81 -4
160 -8 177 -9 l29 -2 17 100 c9 55 22 120 29 144 6 24 8 47 3 51 -9 8 -182 41
-249 48 -33 3 -43 0 -48 -15z"/>
<path d="M6301 2918 c-20 -42 -60 -97 -102 -142 l-67 -72 16 -122 c9 -67 19
-122 23 -122 13 0 112 114 147 169 19 30 43 79 54 110 20 55 20 55 -2 148 -12
51 -24 95 -28 97 -4 2 -22 -27 -41 -66z"/>
</g>
</svg>
