<?xml version="1.0" standalone="no"?>
<!DOCTYPE svg PUBLIC "-//W3C//DTD SVG 20010904//EN"
 "http://www.w3.org/TR/2001/REC-SVG-20010904/DTD/svg10.dtd">
<svg version="1.0" xmlns="http://www.w3.org/2000/svg"
 width="960.000000pt" height="720.000000pt" viewBox="0 0 960.000000 720.000000"
 preserveAspectRatio="xMidYMid meet">
<metadata>
Created by potrace 1.16, written by Peter Selinger 2001-2019
</metadata>
<g transform="translate(0.000000,720.000000) scale(0.100000,-0.100000)"
fill="#000000" stroke="none">
<path d="M3463 3418 c-12 -44 -67 -134 -123 -200 -30 -36 -31 -37 -10 -48 32
-17 52 1 103 97 26 48 57 105 69 126 23 38 23 39 4 53 -28 20 -31 19 -43 -28z"/>
<path d="M5354 2831 c-58 -56 -169 -136 -270 -197 -17 -10 -14 -20 46 -142 35
-73 69 -132 75 -132 18 0 158 84 224 134 65 50 171 154 171 167 0 13 -163 239
-171 239 -2 0 -36 -31 -75 -69z"/>
</g>
</svg>
