<?xml version="1.0" standalone="no"?>
<!DOCTYPE svg PUBLIC "-//W3C//DTD SVG 20010904//EN"
 "http://www.w3.org/TR/2001/REC-SVG-20010904/DTD/svg10.dtd">
<svg version="1.0" xmlns="http://www.w3.org/2000/svg"
 width="960.000000pt" height="720.000000pt" viewBox="0 0 960.000000 720.000000"
 preserveAspectRatio="xMidYMid meet">
<metadata>
Created by potrace 1.16, written by Peter Selinger 2001-2019
</metadata>
<g transform="translate(0.000000,720.000000) scale(0.100000,-0.100000)"
fill="#000000" stroke="none">
<path d="M5815 3296 c-44 -29 -86 -61 -94 -70 -16 -19 -28 -9 137 -127 l114
-82 91 93 92 92 -35 29 c-33 28 -199 119 -217 119 -4 0 -44 -24 -88 -54z"/>
<path d="M3505 2914 c-60 -51 -111 -98 -113 -102 -3 -11 136 -292 145 -292 25
0 256 196 251 214 -5 17 -162 275 -168 275 -3 0 -54 -43 -115 -95z"/>
</g>
</svg>
