<?xml version="1.0" standalone="no"?>
<!DOCTYPE svg PUBLIC "-//W3C//DTD SVG 20010904//EN"
 "http://www.w3.org/TR/2001/REC-SVG-20010904/DTD/svg10.dtd">
<svg version="1.0" xmlns="http://www.w3.org/2000/svg"
 width="960.000000pt" height="720.000000pt" viewBox="0 0 960.000000 720.000000"
 preserveAspectRatio="xMidYMid meet">
<metadata>
Created by potrace 1.16, written by Peter Selinger 2001-2019
</metadata>
<g transform="translate(0.000000,720.000000) scale(0.100000,-0.100000)"
fill="#000000" stroke="none">
<path d="M3586 4884 c-4 -9 -4 -19 -1 -22 2 -3 7 3 11 12 4 9 4 19 1 22 -2 3
-7 -3 -11 -12z"/>
<path d="M5016 3291 c-3 -5 -1 -55 4 -112 5 -57 11 -129 12 -159 l3 -55 35 1
c31 0 235 20 285 28 15 2 20 11 21 37 1 19 7 45 13 58 7 12 10 34 7 49 -3 15
-9 45 -12 66 -12 81 -14 82 -106 89 -119 10 -256 8 -262 -2z"/>
</g>
</svg>
