<?xml version="1.0" standalone="no"?>
<!DOCTYPE svg PUBLIC "-//W3C//DTD SVG 20010904//EN"
 "http://www.w3.org/TR/2001/REC-SVG-20010904/DTD/svg10.dtd">
<svg version="1.0" xmlns="http://www.w3.org/2000/svg"
 width="960.000000pt" height="720.000000pt" viewBox="0 0 960.000000 720.000000"
 preserveAspectRatio="xMidYMid meet">
<metadata>
Created by potrace 1.16, written by Peter Selinger 2001-2019
</metadata>
<g transform="translate(0.000000,720.000000) scale(0.100000,-0.100000)"
fill="#000000" stroke="none">
<path d="M4610 4998 c-30 -35 -95 -108 -145 -163 -50 -55 -107 -119 -128 -143
l-38 -43 55 -103 c30 -57 67 -122 82 -145 26 -40 28 -41 44 -24 30 32 294 334
323 368 l28 34 -76 133 c-42 73 -80 136 -84 141 -4 4 -32 -21 -61 -55z"/>
<path d="M6450 3453 c-8 -3 -22 -7 -30 -10 -8 -4 -21 -5 -27 -4 -7 1 -13 -3
-13 -9 0 -5 5 -10 10 -10 6 0 10 -5 10 -11 0 -6 10 -25 22 -42 12 -17 21 -41
20 -53 -1 -18 66 -173 84 -193 2 -2 23 9 48 25 72 46 71 67 -7 183 -73 107
-95 131 -117 124z"/>
</g>
</svg>
