<?xml version="1.0" standalone="no"?>
<!DOCTYPE svg PUBLIC "-//W3C//DTD SVG 20010904//EN"
 "http://www.w3.org/TR/2001/REC-SVG-20010904/DTD/svg10.dtd">
<svg version="1.0" xmlns="http://www.w3.org/2000/svg"
 width="960.000000pt" height="720.000000pt" viewBox="0 0 960.000000 720.000000"
 preserveAspectRatio="xMidYMid meet">
<metadata>
Created by potrace 1.16, written by Peter Selinger 2001-2019
</metadata>
<g transform="translate(0.000000,720.000000) scale(0.100000,-0.100000)"
fill="#000000" stroke="none">
<path d="M4022 3338 c-8 -11 -30 -75 -93 -272 -5 -16 -9 -32 -9 -36 0 -6 59
-10 340 -23 32 -2 35 1 38 28 1 17 9 80 18 140 9 61 16 114 15 120 0 9 -219
53 -272 54 -15 1 -31 -5 -37 -11z"/>
<path d="M6390 2960 c-17 -51 -74 -138 -126 -193 l-41 -42 8 -60 c4 -33 8 -91
8 -129 l1 -70 31 30 c54 51 128 172 150 246 20 65 21 77 10 153 -16 104 -24
117 -41 65z"/>
</g>
</svg>
