<?xml version="1.0" standalone="no"?>
<!DOCTYPE svg PUBLIC "-//W3C//DTD SVG 20010904//EN"
 "http://www.w3.org/TR/2001/REC-SVG-20010904/DTD/svg10.dtd">
<svg version="1.0" xmlns="http://www.w3.org/2000/svg"
 width="960.000000pt" height="720.000000pt" viewBox="0 0 960.000000 720.000000"
 preserveAspectRatio="xMidYMid meet">
<metadata>
Created by potrace 1.16, written by Peter Selinger 2001-2019
</metadata>
<g transform="translate(0.000000,720.000000) scale(0.100000,-0.100000)"
fill="#000000" stroke="none">
<path d="M5650 3265 c-51 -25 -106 -55 -121 -66 l-28 -20 72 -68 c155 -146
154 -145 179 -127 13 9 63 45 112 81 49 36 96 69 105 74 14 8 14 11 -3 30 -27
29 -192 141 -208 141 -8 0 -56 -20 -108 -45z"/>
<path d="M3339 3038 c-61 -76 -89 -118 -89 -133 0 -8 7 -34 16 -57 57 -153 78
-204 88 -216 9 -9 28 7 84 75 41 50 71 95 68 103 -9 32 -121 270 -127 270 -3
0 -21 -19 -40 -42z"/>
</g>
</svg>
