<?xml version="1.0" standalone="no"?>
<!DOCTYPE svg PUBLIC "-//W3C//DTD SVG 20010904//EN"
 "http://www.w3.org/TR/2001/REC-SVG-20010904/DTD/svg10.dtd">
<svg version="1.0" xmlns="http://www.w3.org/2000/svg"
 width="960.000000pt" height="720.000000pt" viewBox="0 0 960.000000 720.000000"
 preserveAspectRatio="xMidYMid meet">
<metadata>
Created by potrace 1.16, written by Peter Selinger 2001-2019
</metadata>
<g transform="translate(0.000000,720.000000) scale(0.100000,-0.100000)"
fill="#000000" stroke="none">
<path d="M5530 3261 c-41 -15 -106 -42 -143 -59 -58 -27 -66 -34 -58 -49 7
-14 150 -195 166 -211 1 -2 37 19 78 46 41 27 109 67 151 88 42 21 76 42 76
46 0 6 -163 147 -185 160 -5 3 -44 -6 -85 -21z"/>
<path d="M3261 3095 c-34 -58 -32 -81 15 -245 14 -47 27 -92 30 -100 3 -9 18
8 40 47 l34 61 -41 129 c-23 70 -45 132 -49 136 -4 5 -17 -8 -29 -28z"/>
</g>
</svg>
