<?xml version="1.0" standalone="no"?>
<!DOCTYPE svg PUBLIC "-//W3C//DTD SVG 20010904//EN"
 "http://www.w3.org/TR/2001/REC-SVG-20010904/DTD/svg10.dtd">
<svg version="1.0" xmlns="http://www.w3.org/2000/svg"
 width="960.000000pt" height="720.000000pt" viewBox="0 0 960.000000 720.000000"
 preserveAspectRatio="xMidYMid meet">
<metadata>
Created by potrace 1.16, written by Peter Selinger 2001-2019
</metadata>
<g transform="translate(0.000000,720.000000) scale(0.100000,-0.100000)"
fill="#000000" stroke="none">
<path d="M3428 3407 c-14 -29 -54 -88 -88 -131 -48 -60 -59 -80 -49 -87 23
-14 32 -6 78 72 24 41 59 98 77 126 37 57 41 73 21 73 -7 0 -25 -24 -39 -53z"/>
<path d="M5269 2864 c-47 -49 -175 -145 -259 -194 -39 -23 -70 -45 -70 -51 0
-5 30 -67 67 -138 l67 -129 60 30 c117 59 282 183 338 254 17 21 16 24 -72
143 -49 66 -91 121 -93 121 -2 0 -19 -16 -38 -36z"/>
</g>
</svg>
