<?xml version="1.0" standalone="no"?>
<!DOCTYPE svg PUBLIC "-//W3C//DTD SVG 20010904//EN"
 "http://www.w3.org/TR/2001/REC-SVG-20010904/DTD/svg10.dtd">
<svg version="1.0" xmlns="http://www.w3.org/2000/svg"
 width="960.000000pt" height="720.000000pt" viewBox="0 0 960.000000 720.000000"
 preserveAspectRatio="xMidYMid meet">
<metadata>
Created by potrace 1.16, written by Peter Selinger 2001-2019
</metadata>
<g transform="translate(0.000000,720.000000) scale(0.100000,-0.100000)"
fill="#000000" stroke="none">
<path d="M3815 4969 c-68 -122 -70 -132 -69 -292 0 -168 11 -201 39 -115 10
29 35 85 56 125 22 39 37 77 35 85 -3 7 -7 54 -10 103 -4 50 -10 103 -14 119
l-8 28 -29 -53z"/>
<path d="M5722 3100 c0 -55 3 -100 6 -100 4 0 17 3 29 6 17 5 20 10 15 23 -5
9 -8 32 -8 53 1 20 -2 34 -6 32 -4 -2 -10 16 -13 41 -12 77 -23 50 -23 -55z"/>
</g>
</svg>
