<?xml version="1.0" standalone="no"?>
<!DOCTYPE svg PUBLIC "-//W3C//DTD SVG 20010904//EN"
 "http://www.w3.org/TR/2001/REC-SVG-20010904/DTD/svg10.dtd">
<svg version="1.0" xmlns="http://www.w3.org/2000/svg"
 width="960.000000pt" height="720.000000pt" viewBox="0 0 960.000000 720.000000"
 preserveAspectRatio="xMidYMid meet">
<metadata>
Created by potrace 1.16, written by Peter Selinger 2001-2019
</metadata>
<g transform="translate(0.000000,720.000000) scale(0.100000,-0.100000)"
fill="#000000" stroke="none">
<path d="M5505 4992 c-31 -48 -103 -131 -193 -221 -84 -85 -141 -150 -138
-157 9 -24 198 -254 208 -254 35 0 318 288 318 324 0 7 -7 19 -15 26 -18 15
-20 76 -2 78 6 1 34 3 60 4 27 2 49 6 50 9 3 9 -222 269 -231 269 -4 0 -29
-35 -57 -78z"/>
</g>
</svg>
