<?xml version="1.0" standalone="no"?>
<!DOCTYPE svg PUBLIC "-//W3C//DTD SVG 20010904//EN"
 "http://www.w3.org/TR/2001/REC-SVG-20010904/DTD/svg10.dtd">
<svg version="1.0" xmlns="http://www.w3.org/2000/svg"
 width="960.000000pt" height="720.000000pt" viewBox="0 0 960.000000 720.000000"
 preserveAspectRatio="xMidYMid meet">
<metadata>
Created by potrace 1.16, written by Peter Selinger 2001-2019
</metadata>
<g transform="translate(0.000000,720.000000) scale(0.100000,-0.100000)"
fill="#000000" stroke="none">
<path d="M4129 3333 c-16 -4 -24 -26 -79 -228 l-27 -100 146 0 c80 -1 170 -4
199 -8 l52 -8 0 48 c1 26 6 94 13 151 7 57 11 105 7 107 -7 4 -275 45 -287 44
-4 -1 -15 -3 -24 -6z"/>
<path d="M6423 2897 c-18 -34 -51 -84 -74 -112 -41 -50 -41 -50 -35 -115 3
-36 6 -90 6 -120 l1 -55 35 40 c19 22 51 74 72 115 35 72 37 80 41 193 2 64
-1 117 -5 117 -5 0 -24 -28 -41 -63z"/>
</g>
</svg>
