<?xml version="1.0" standalone="no"?>
<!DOCTYPE svg PUBLIC "-//W3C//DTD SVG 20010904//EN"
 "http://www.w3.org/TR/2001/REC-SVG-20010904/DTD/svg10.dtd">
<svg version="1.0" xmlns="http://www.w3.org/2000/svg"
 width="960.000000pt" height="720.000000pt" viewBox="0 0 960.000000 720.000000"
 preserveAspectRatio="xMidYMid meet">
<metadata>
Created by potrace 1.16, written by Peter Selinger 2001-2019
</metadata>
<g transform="translate(0.000000,720.000000) scale(0.100000,-0.100000)"
fill="#000000" stroke="none">
<path d="M6357 4952 c-4 -40 -17 -101 -28 -135 l-21 -61 28 -105 28 -104 19
44 c36 84 32 307 -6 402 -13 32 -14 31 -20 -41z"/>
<path d="M5133 3235 c-28 -8 -88 -28 -132 -45 -93 -36 -94 -39 -65 -155 15
-61 18 -65 44 -65 16 0 30 -5 32 -10 2 -6 60 15 130 45 71 30 134 55 140 55 7
0 19 4 26 9 18 11 -82 181 -107 180 -9 0 -39 -7 -68 -14z"/>
</g>
</svg>
