<?xml version="1.0" standalone="no"?>
<!DOCTYPE svg PUBLIC "-//W3C//DTD SVG 20010904//EN"
 "http://www.w3.org/TR/2001/REC-SVG-20010904/DTD/svg10.dtd">
<svg version="1.0" xmlns="http://www.w3.org/2000/svg"
 width="960.000000pt" height="720.000000pt" viewBox="0 0 960.000000 720.000000"
 preserveAspectRatio="xMidYMid meet">
<metadata>
Created by potrace 1.16, written by Peter Selinger 2001-2019
</metadata>
<g transform="translate(0.000000,720.000000) scale(0.100000,-0.100000)"
fill="#000000" stroke="none">
<path d="M3253 3368 c-6 -7 -16 -23 -22 -35 -10 -19 -9 -22 5 -16 8 3 20 17
25 31 11 28 7 39 -8 20z"/>
<path d="M4759 2864 c-30 -32 -213 -156 -283 -191 -28 -14 -53 -27 -54 -29 -5
-4 148 -273 159 -280 33 -20 440 249 422 279 -25 43 -197 247 -207 247 -7 0
-23 -12 -37 -26z"/>
</g>
</svg>
