<?xml version="1.0" standalone="no"?>
<!DOCTYPE svg PUBLIC "-//W3C//DTD SVG 20010904//EN"
 "http://www.w3.org/TR/2001/REC-SVG-20010904/DTD/svg10.dtd">
<svg version="1.0" xmlns="http://www.w3.org/2000/svg"
 width="960.000000pt" height="720.000000pt" viewBox="0 0 960.000000 720.000000"
 preserveAspectRatio="xMidYMid meet">
<metadata>
Created by potrace 1.16, written by Peter Selinger 2001-2019
</metadata>
<g transform="translate(0.000000,720.000000) scale(0.100000,-0.100000)"
fill="#000000" stroke="none">
<path d="M3657 5046 c-18 -38 -62 -264 -53 -273 10 -10 44 84 51 142 3 33 11
79 17 102 14 57 6 72 -15 29z"/>
<path d="M5135 3290 c-3 -5 1 -63 10 -127 9 -65 18 -137 21 -160 3 -24 11 -43
17 -43 7 0 68 9 135 19 151 23 154 26 154 142 0 49 -4 85 -12 94 -9 10 -9 15
-1 15 6 0 11 11 11 25 0 18 -7 28 -26 35 -34 13 -301 13 -309 0z"/>
</g>
</svg>
