<?xml version="1.0" standalone="no"?>
<!DOCTYPE svg PUBLIC "-//W3C//DTD SVG 20010904//EN"
 "http://www.w3.org/TR/2001/REC-SVG-20010904/DTD/svg10.dtd">
<svg version="1.0" xmlns="http://www.w3.org/2000/svg"
 width="960.000000pt" height="720.000000pt" viewBox="0 0 960.000000 720.000000"
 preserveAspectRatio="xMidYMid meet">
<metadata>
Created by potrace 1.16, written by Peter Selinger 2001-2019
</metadata>
<g transform="translate(0.000000,720.000000) scale(0.100000,-0.100000)"
fill="#000000" stroke="none">
<path d="M6230 5101 c0 -53 -51 -193 -92 -256 -23 -33 -63 -83 -91 -112 l-50
-52 83 -123 c46 -68 85 -125 87 -127 6 -8 63 51 110 114 71 93 124 210 123
270 0 28 2 62 6 76 5 22 -7 42 -76 127 -44 56 -85 104 -90 107 -6 4 -10 -7
-10 -24z"/>
<path d="M4470 3241 c-86 -29 -119 -50 -154 -99 -74 -101 -109 -193 -59 -150
10 8 38 23 63 33 25 10 54 27 66 37 11 10 36 18 55 18 46 0 55 8 69 60 7 25
21 62 31 82 18 36 18 38 2 37 -10 0 -43 -8 -73 -18z m-110 -175 c0 -14 -29
-31 -38 -21 -6 6 18 35 29 35 5 0 9 -6 9 -14z"/>
</g>
</svg>
