<?xml version="1.0" standalone="no"?>
<!DOCTYPE svg PUBLIC "-//W3C//DTD SVG 20010904//EN"
 "http://www.w3.org/TR/2001/REC-SVG-20010904/DTD/svg10.dtd">
<svg version="1.0" xmlns="http://www.w3.org/2000/svg"
 width="960.000000pt" height="720.000000pt" viewBox="0 0 960.000000 720.000000"
 preserveAspectRatio="xMidYMid meet">
<metadata>
Created by potrace 1.16, written by Peter Selinger 2001-2019
</metadata>
<g transform="translate(0.000000,720.000000) scale(0.100000,-0.100000)"
fill="#000000" stroke="none">
<path d="M3211 3289 c-21 -35 20 -40 42 -5 15 23 15 24 -8 22 -13 0 -28 -8
-34 -17z"/>
<path d="M4905 2879 c-34 -38 -196 -154 -277 -198 -43 -24 -78 -47 -78 -51 0
-16 144 -262 156 -267 29 -11 277 139 378 229 l48 43 -75 100 c-42 55 -89 115
-104 133 l-28 34 -20 -23z"/>
</g>
</svg>
