<?xml version="1.0" standalone="no"?>
<!DOCTYPE svg PUBLIC "-//W3C//DTD SVG 20010904//EN"
 "http://www.w3.org/TR/2001/REC-SVG-20010904/DTD/svg10.dtd">
<svg version="1.0" xmlns="http://www.w3.org/2000/svg"
 width="960.000000pt" height="720.000000pt" viewBox="0 0 960.000000 720.000000"
 preserveAspectRatio="xMidYMid meet">
<metadata>
Created by potrace 1.16, written by Peter Selinger 2001-2019
</metadata>
<g transform="translate(0.000000,720.000000) scale(0.100000,-0.100000)"
fill="#000000" stroke="none">
<path d="M3774 4994 c-20 -37 -43 -84 -51 -106 -17 -49 -23 -164 -14 -248 l8
-65 16 40 c10 22 33 70 52 107 34 65 35 68 36 198 0 72 -2 134 -4 137 -3 2
-22 -26 -43 -63z"/>
<path d="M5565 3153 c4 -92 9 -170 11 -172 2 -2 31 4 64 14 38 11 57 22 51 28
-5 5 -6 21 -1 38 5 18 3 47 -6 81 -20 73 -26 99 -26 130 -1 27 -11 33 -72 44
l-29 6 8 -169z"/>
</g>
</svg>
