<?xml version="1.0" standalone="no"?>
<!DOCTYPE svg PUBLIC "-//W3C//DTD SVG 20010904//EN"
 "http://www.w3.org/TR/2001/REC-SVG-20010904/DTD/svg10.dtd">
<svg version="1.0" xmlns="http://www.w3.org/2000/svg"
 width="960.000000pt" height="720.000000pt" viewBox="0 0 960.000000 720.000000"
 preserveAspectRatio="xMidYMid meet">
<metadata>
Created by potrace 1.16, written by Peter Selinger 2001-2019
</metadata>
<g transform="translate(0.000000,720.000000) scale(0.100000,-0.100000)"
fill="#000000" stroke="none">
<path d="M3988 5011 c-15 -17 -29 -40 -33 -51 -3 -11 -10 -20 -15 -20 -15 0
-72 -99 -96 -168 -23 -66 -23 -70 -8 -152 8 -47 22 -110 31 -140 l16 -55 11
30 c5 17 34 77 63 134 53 103 53 105 38 137 -15 33 -20 74 -9 74 12 0 33 -34
34 -52 0 -28 16 -21 47 20 28 35 28 39 17 83 -6 25 -19 60 -28 77 -9 18 -14
32 -10 32 4 0 1 6 -5 14 -7 8 -16 27 -20 42 l-7 27 -26 -32z"/>
<path d="M6207 3083 c-4 -3 -7 -11 -7 -17 0 -6 5 -5 12 2 6 6 9 14 7 17 -3 3
-9 2 -12 -2z"/>
</g>
</svg>
