<?xml version="1.0" standalone="no"?>
<!DOCTYPE svg PUBLIC "-//W3C//DTD SVG 20010904//EN"
 "http://www.w3.org/TR/2001/REC-SVG-20010904/DTD/svg10.dtd">
<svg version="1.0" xmlns="http://www.w3.org/2000/svg"
 width="960.000000pt" height="720.000000pt" viewBox="0 0 960.000000 720.000000"
 preserveAspectRatio="xMidYMid meet">
<metadata>
Created by potrace 1.16, written by Peter Selinger 2001-2019
</metadata>
<g transform="translate(0.000000,720.000000) scale(0.100000,-0.100000)"
fill="#000000" stroke="none">
<path d="M5610 3261 c-47 -21 -104 -49 -128 -62 l-43 -23 109 -109 109 -109
74 54 c41 29 100 69 132 88 31 19 57 39 57 45 0 18 -188 155 -212 155 -7 0
-51 -18 -98 -39z"/>
<path d="M3285 3029 c-40 -59 -46 -76 -42 -107 4 -36 77 -256 89 -267 3 -3 33
33 68 80 l62 86 -50 117 c-28 64 -53 127 -57 140 -3 12 -10 22 -14 22 -5 0
-30 -32 -56 -71z"/>
</g>
</svg>
