<?xml version="1.0" standalone="no"?>
<!DOCTYPE svg PUBLIC "-//W3C//DTD SVG 20010904//EN"
 "http://www.w3.org/TR/2001/REC-SVG-20010904/DTD/svg10.dtd">
<svg version="1.0" xmlns="http://www.w3.org/2000/svg"
 width="960.000000pt" height="720.000000pt" viewBox="0 0 960.000000 720.000000"
 preserveAspectRatio="xMidYMid meet">
<metadata>
Created by potrace 1.16, written by Peter Selinger 2001-2019
</metadata>
<g transform="translate(0.000000,720.000000) scale(0.100000,-0.100000)"
fill="#000000" stroke="none">
<path d="M5920 3338 c-27 -35 -50 -67 -50 -73 0 -5 54 -38 120 -73 96 -50 120
-60 127 -48 4 8 17 14 27 13 23 -2 46 35 46 75 0 40 -58 100 -133 137 -34 17
-68 31 -74 31 -7 0 -35 -28 -63 -62z"/>
<path d="M4032 2901 c-28 -23 -93 -68 -144 -101 -149 -95 -136 -78 -101 -141
17 -30 40 -70 51 -89 59 -106 71 -125 84 -134 25 -15 266 130 346 208 l24 23
-97 129 c-53 71 -100 133 -104 137 -5 4 -31 -10 -59 -32z"/>
</g>
</svg>
