<?xml version="1.0" standalone="no"?>
<!DOCTYPE svg PUBLIC "-//W3C//DTD SVG 20010904//EN"
 "http://www.w3.org/TR/2001/REC-SVG-20010904/DTD/svg10.dtd">
<svg version="1.0" xmlns="http://www.w3.org/2000/svg"
 width="960.000000pt" height="720.000000pt" viewBox="0 0 960.000000 720.000000"
 preserveAspectRatio="xMidYMid meet">
<metadata>
Created by potrace 1.16, written by Peter Selinger 2001-2019
</metadata>
<g transform="translate(0.000000,720.000000) scale(0.100000,-0.100000)"
fill="#000000" stroke="none">
<path d="M5794 3297 c-98 -59 -135 -87 -129 -98 3 -5 61 -51 129 -102 l123
-93 101 95 102 96 -42 31 c-47 35 -189 114 -204 114 -5 0 -41 -19 -80 -43z"/>
<path d="M3442 2931 l-104 -96 45 -100 c60 -136 90 -195 97 -195 14 0 230 190
230 202 0 8 -148 269 -158 280 -4 3 -54 -37 -110 -91z"/>
</g>
</svg>
