<?xml version="1.0" standalone="no"?>
<!DOCTYPE svg PUBLIC "-//W3C//DTD SVG 20010904//EN"
 "http://www.w3.org/TR/2001/REC-SVG-20010904/DTD/svg10.dtd">
<svg version="1.0" xmlns="http://www.w3.org/2000/svg"
 width="960.000000pt" height="720.000000pt" viewBox="0 0 960.000000 720.000000"
 preserveAspectRatio="xMidYMid meet">
<metadata>
Created by potrace 1.16, written by Peter Selinger 2001-2019
</metadata>
<g transform="translate(0.000000,720.000000) scale(0.100000,-0.100000)"
fill="#000000" stroke="none">
<path d="M3938 5035 c-6 -14 -15 -25 -20 -25 -9 0 -5 -45 7 -72 4 -10 4 -26 0
-35 -6 -14 -10 -11 -17 17 -6 19 -12 42 -15 50 -3 9 -17 -7 -39 -45 -48 -85
-74 -158 -74 -211 0 -63 31 -257 40 -247 4 4 15 31 25 58 9 28 33 79 53 115
26 49 35 78 36 118 1 28 -2 52 -6 52 -5 0 -8 7 -8 15 0 24 20 18 30 -9 12 -32
25 -39 40 -21 13 15 12 26 -15 195 -3 19 -6 43 -6 53 0 25 -18 21 -31 -8z"/>
</g>
</svg>
