<?xml version="1.0" standalone="no"?>
<!DOCTYPE svg PUBLIC "-//W3C//DTD SVG 20010904//EN"
 "http://www.w3.org/TR/2001/REC-SVG-20010904/DTD/svg10.dtd">
<svg version="1.0" xmlns="http://www.w3.org/2000/svg"
 width="960.000000pt" height="720.000000pt" viewBox="0 0 960.000000 720.000000"
 preserveAspectRatio="xMidYMid meet">
<metadata>
Created by potrace 1.16, written by Peter Selinger 2001-2019
</metadata>
<g transform="translate(0.000000,720.000000) scale(0.100000,-0.100000)"
fill="#000000" stroke="none">
<path d="M5929 3345 c-24 -36 -43 -68 -42 -71 1 -3 46 -28 100 -55 l98 -48 32
34 c48 53 49 66 5 112 -34 35 -122 93 -142 93 -3 0 -27 -29 -51 -65z"/>
<path d="M4138 2887 c-70 -57 -160 -118 -226 -152 -29 -15 -54 -30 -56 -34 -6
-10 160 -291 172 -291 14 0 166 89 242 141 95 66 130 94 130 104 0 7 -200 275
-206 275 -1 0 -26 -19 -56 -43z"/>
</g>
</svg>
