<?xml version="1.0" standalone="no"?>
<!DOCTYPE svg PUBLIC "-//W3C//DTD SVG 20010904//EN"
 "http://www.w3.org/TR/2001/REC-SVG-20010904/DTD/svg10.dtd">
<svg version="1.0" xmlns="http://www.w3.org/2000/svg"
 width="960.000000pt" height="720.000000pt" viewBox="0 0 960.000000 720.000000"
 preserveAspectRatio="xMidYMid meet">
<metadata>
Created by potrace 1.16, written by Peter Selinger 2001-2019
</metadata>
<g transform="translate(0.000000,720.000000) scale(0.100000,-0.100000)"
fill="#000000" stroke="none">
<path d="M4799 4982 c-35 -42 -122 -136 -193 -209 l-128 -133 32 -57 c18 -32
60 -98 93 -147 l60 -90 71 75 c118 125 321 351 321 357 0 10 -172 269 -182
275 -5 3 -38 -29 -74 -71z"/>
<path d="M6473 3471 c-27 -15 -30 -20 -18 -32 22 -23 145 -212 145 -224 0 -5
8 -20 18 -33 l18 -23 33 35 34 35 -32 53 c-57 92 -144 208 -155 207 -6 0 -25
-8 -43 -18z"/>
</g>
</svg>
