<?xml version="1.0" standalone="no"?>
<!DOCTYPE svg PUBLIC "-//W3C//DTD SVG 20010904//EN"
 "http://www.w3.org/TR/2001/REC-SVG-20010904/DTD/svg10.dtd">
<svg version="1.0" xmlns="http://www.w3.org/2000/svg"
 width="960.000000pt" height="720.000000pt" viewBox="0 0 960.000000 720.000000"
 preserveAspectRatio="xMidYMid meet">
<metadata>
Created by potrace 1.16, written by Peter Selinger 2001-2019
</metadata>
<g transform="translate(0.000000,720.000000) scale(0.100000,-0.100000)"
fill="#000000" stroke="none">
<path d="M4344 4919 c-66 -78 -139 -168 -163 -200 l-43 -60 31 -72 c18 -40 49
-105 70 -146 l38 -74 32 47 c47 68 184 239 247 307 l53 58 -28 58 c-16 32 -46
95 -66 141 -21 45 -41 82 -45 82 -4 0 -61 -63 -126 -141z"/>
<path d="M6386 3411 c-4 -6 -2 -20 4 -31 7 -14 7 -20 0 -20 -11 0 -7 -25 12
-87 15 -49 29 -40 23 15 -3 26 -7 62 -9 80 -3 37 -20 60 -30 43z"/>
<path d="M6396 3175 c-10 -8 -24 -16 -30 -18 -7 -3 -5 -16 7 -41 9 -20 21 -34
27 -31 11 7 23 66 18 88 -3 14 -6 14 -22 2z"/>
</g>
</svg>
