<?xml version="1.0" standalone="no"?>
<!DOCTYPE svg PUBLIC "-//W3C//DTD SVG 20010904//EN"
 "http://www.w3.org/TR/2001/REC-SVG-20010904/DTD/svg10.dtd">
<svg version="1.0" xmlns="http://www.w3.org/2000/svg"
 width="960.000000pt" height="720.000000pt" viewBox="0 0 960.000000 720.000000"
 preserveAspectRatio="xMidYMid meet">
<metadata>
Created by potrace 1.16, written by Peter Selinger 2001-2019
</metadata>
<g transform="translate(0.000000,720.000000) scale(0.100000,-0.100000)"
fill="#000000" stroke="none">
<path d="M6360 4998 c0 -88 -10 -137 -42 -205 l-20 -42 32 -98 c17 -54 34
-105 37 -113 8 -25 51 95 64 180 9 61 10 95 0 152 -13 81 -47 195 -62 203 -5
4 -9 -29 -9 -77z"/>
<path d="M5105 3245 c-5 -2 -50 -15 -100 -30 -49 -15 -107 -36 -127 -46 l-37
-19 6 -52 c3 -29 8 -69 12 -88 l7 -35 60 2 c38 2 85 12 129 31 39 15 90 34
115 42 25 7 49 17 53 20 5 4 -11 46 -35 94 -40 81 -51 92 -83 81z"/>
</g>
</svg>
