<?xml version="1.0" standalone="no"?>
<!DOCTYPE svg PUBLIC "-//W3C//DTD SVG 20010904//EN"
 "http://www.w3.org/TR/2001/REC-SVG-20010904/DTD/svg10.dtd">
<svg version="1.0" xmlns="http://www.w3.org/2000/svg"
 width="960.000000pt" height="720.000000pt" viewBox="0 0 960.000000 720.000000"
 preserveAspectRatio="xMidYMid meet">
<metadata>
Created by potrace 1.16, written by Peter Selinger 2001-2019
</metadata>
<g transform="translate(0.000000,720.000000) scale(0.100000,-0.100000)"
fill="#000000" stroke="none">
<path d="M5392 3245 c-82 -28 -202 -81 -202 -89 0 -10 100 -171 122 -198 l23
-26 72 43 c40 23 111 60 158 81 47 22 85 44 85 49 0 16 -154 165 -170 165 -8
0 -48 -12 -88 -25z"/>
<path d="M3255 3141 c-3 -11 3 -65 14 -118 11 -54 22 -111 25 -127 3 -16 8
-31 11 -34 9 -9 25 20 24 43 0 26 -53 243 -61 251 -3 3 -9 -4 -13 -15z"/>
</g>
</svg>
