<?xml version="1.0" standalone="no"?>
<!DOCTYPE svg PUBLIC "-//W3C//DTD SVG 20010904//EN"
 "http://www.w3.org/TR/2001/REC-SVG-20010904/DTD/svg10.dtd">
<svg version="1.0" xmlns="http://www.w3.org/2000/svg"
 width="960.000000pt" height="720.000000pt" viewBox="0 0 960.000000 720.000000"
 preserveAspectRatio="xMidYMid meet">
<metadata>
Created by potrace 1.16, written by Peter Selinger 2001-2019
</metadata>
<g transform="translate(0.000000,720.000000) scale(0.100000,-0.100000)"
fill="#000000" stroke="none">
<path d="M6436 4957 c-4 -19 -11 -24 -26 -20 -11 3 -20 9 -20 14 0 5 -6 9 -14
9 -9 0 -22 -26 -35 -67 -11 -38 -33 -89 -50 -114 l-29 -47 46 -111 c26 -60 51
-109 57 -107 19 5 76 136 91 208 17 77 14 211 -4 243 -8 15 -10 14 -16 -8z"/>
<path d="M4910 3231 c-85 -24 -182 -59 -193 -70 -11 -11 -28 -146 -21 -166 4
-9 14 -14 23 -11 9 3 43 10 76 16 33 6 102 23 153 37 106 30 100 16 66 146
-10 37 -23 67 -28 66 -6 0 -40 -8 -76 -18z"/>
</g>
</svg>
