<?xml version="1.0" standalone="no"?>
<!DOCTYPE svg PUBLIC "-//W3C//DTD SVG 20010904//EN"
 "http://www.w3.org/TR/2001/REC-SVG-20010904/DTD/svg10.dtd">
<svg version="1.0" xmlns="http://www.w3.org/2000/svg"
 width="960.000000pt" height="720.000000pt" viewBox="0 0 960.000000 720.000000"
 preserveAspectRatio="xMidYMid meet">
<metadata>
Created by potrace 1.16, written by Peter Selinger 2001-2019
</metadata>
<g transform="translate(0.000000,720.000000) scale(0.100000,-0.100000)"
fill="#000000" stroke="none">
<path d="M4426 3283 c-13 -66 -47 -305 -44 -306 2 -1 96 -1 211 1 l207 3 -1
82 c-1 45 -4 114 -8 152 l-6 70 -100 12 c-55 6 -135 12 -177 12 -76 1 -76 1
-82 -26z"/>
<path d="M6536 2818 c-7 -13 -16 -59 -19 -103 -3 -44 -3 -71 0 -60 3 11 9 25
13 30 5 6 11 31 14 57 3 27 8 59 12 73 8 31 -1 32 -20 3z"/>
</g>
</svg>
