<?xml version="1.0" standalone="no"?>
<!DOCTYPE svg PUBLIC "-//W3C//DTD SVG 20010904//EN"
 "http://www.w3.org/TR/2001/REC-SVG-20010904/DTD/svg10.dtd">
<svg version="1.0" xmlns="http://www.w3.org/2000/svg"
 width="960.000000pt" height="720.000000pt" viewBox="0 0 960.000000 720.000000"
 preserveAspectRatio="xMidYMid meet">
<metadata>
Created by potrace 1.16, written by Peter Selinger 2001-2019
</metadata>
<g transform="translate(0.000000,720.000000) scale(0.100000,-0.100000)"
fill="#000000" stroke="none">
<path d="M6272 4875 c-18 -37 -51 -91 -73 -120 l-39 -52 68 -122 68 -121 21
22 c31 35 77 108 101 160 45 98 65 213 33 194 -17 -11 -66 17 -106 62 l-40 44
-33 -67z"/>
<path d="M4675 3231 c-144 -42 -172 -66 -205 -179 -15 -47 -9 -62 16 -42 8 8
57 19 107 26 51 6 110 17 132 23 l41 11 1 90 c1 103 5 99 -92 71z"/>
<path d="M4479 2970 l-24 -20 28 11 c15 7 27 16 27 21 0 12 -5 10 -31 -12z"/>
</g>
</svg>
