<?xml version="1.0" standalone="no"?>
<!DOCTYPE svg PUBLIC "-//W3C//DTD SVG 20010904//EN"
 "http://www.w3.org/TR/2001/REC-SVG-20010904/DTD/svg10.dtd">
<svg version="1.0" xmlns="http://www.w3.org/2000/svg"
 width="960.000000pt" height="720.000000pt" viewBox="0 0 960.000000 720.000000"
 preserveAspectRatio="xMidYMid meet">
<metadata>
Created by potrace 1.16, written by Peter Selinger 2001-2019
</metadata>
<g transform="translate(0.000000,720.000000) scale(0.100000,-0.100000)"
fill="#000000" stroke="none">
<path d="M6295 5063 c-13 -114 -66 -229 -154 -334 l-30 -35 65 -103 c35 -57
64 -107 64 -111 0 -4 6 -13 14 -19 24 -20 121 118 170 241 32 81 33 105 5 113
-49 16 -100 106 -81 142 20 37 -9 163 -37 163 -5 0 -12 -26 -16 -57z"/>
<path d="M4600 3234 c-46 -14 -77 -27 -119 -49 -26 -13 -81 -105 -81 -133 0
-10 -5 -23 -12 -30 -22 -22 0 -24 29 -3 19 14 56 24 122 32 140 16 138 15 143
96 3 37 8 76 13 86 6 14 2 17 -21 16 -16 -1 -49 -7 -74 -15z"/>
<path d="M4434 2998 c-19 -21 -19 -21 6 -8 33 17 33 17 22 24 -5 3 -18 -4 -28
-16z"/>
</g>
</svg>
